<?xml version="1.0" encoding="UTF-8"?>
<svg xmlns="http://www.w3.org/2000/svg" width="60" height="60" viewBox="0 0 60 60" fill="none">
  <rect width="60" height="60" rx="11" fill="#FF4A00"></rect>
  <path fill-rule="evenodd" clip-rule="evenodd" d="M40.2833 44.1673H19.7168C17.5871 44.1673 15.8606 42.4375 15.8606 40.3037V28.0688C15.8606 27.7132 16.1483 27.4249 16.5033 27.4249H41.5687V22.2734C41.5687 21.5621 40.9932 20.9855 40.2833 20.9855H37.7125V22.9173C37.7125 23.273 37.4248 23.5613 37.0698 23.5613H35.7844C35.4294 23.5613 35.1417 23.273 35.1417 22.9173V20.9855H24.8584V22.9173C24.8584 23.273 24.5707 23.5613 24.2157 23.5613H22.9303C22.5754 23.5613 22.2876 23.273 22.2876 22.9173V20.9855H19.7168C19.0069 20.9855 18.4314 21.5621 18.4314 22.2734V24.2052C18.4314 24.5609 18.1437 24.8491 17.7887 24.8491H16.5033C16.1483 24.8491 15.8606 24.5609 15.8606 24.2052V22.2734C15.8606 20.1396 17.5871 18.4097 19.7168 18.4097H22.2876V16.4779C22.2876 16.1223 22.5754 15.834 22.9303 15.834H24.2157C24.5707 15.834 24.8584 16.1223 24.8584 16.4779V18.4097H35.1417V16.4779C35.1417 16.1223 35.4294 15.834 35.7844 15.834H37.0698C37.4248 15.834 37.7125 16.1223 37.7125 16.4779V18.4097H40.2833C42.413 18.4097 44.1395 20.1396 44.1395 22.2734V29.3567C44.1395 29.7124 43.8518 30.0007 43.4968 30.0007H18.4314V40.3037C18.4314 41.0149 19.0069 41.5916 19.7168 41.5916H40.2833C40.9932 41.5916 41.5687 41.0149 41.5687 40.3037V33.2203C41.5687 32.8647 41.8565 32.5764 42.2114 32.5764H43.4968C43.8518 32.5764 44.1395 32.8647 44.1395 33.2203V40.3037C44.1395 42.4375 42.413 44.1673 40.2833 44.1673Z" fill="white"></path>
</svg>
