<?xml version="1.0" encoding="UTF-8"?>
<svg xmlns="http://www.w3.org/2000/svg" width="100" height="100" viewBox="0 0 100 100" fill="none">
  <path d="M0 24C0 10.7452 10.7452 0 24 0H76C89.2548 0 100 10.7452 100 24V76C100 89.2548 89.2548 100 76 100H24C10.7452 100 0 89.2548 0 76V24Z" fill="#FF1B67"></path>
  <path fill-rule="evenodd" clip-rule="evenodd" d="M70.4404 66.3838H64.2966V68.4318C64.2966 71.825 61.546 74.5758 58.1528 74.5758H41.7693C38.3762 74.5758 35.6255 71.825 35.6255 68.4318V37.7118H29.4817C28.3506 37.7118 27.4337 38.6287 27.4337 39.7598V60.2398C27.4337 61.3709 28.3506 62.2878 29.4817 62.2878H30.5056C31.0712 62.2878 31.5296 62.7462 31.5296 63.3118V65.3598C31.5296 65.9254 31.0712 66.3838 30.5056 66.3838H29.4817C26.0886 66.3838 23.3379 63.633 23.3379 60.2398V39.7598C23.3379 36.3666 26.0886 33.6158 29.4817 33.6158H35.6255V31.5678C35.6255 28.1745 38.3762 25.4238 41.7693 25.4238H58.1528C61.546 25.4238 64.2966 28.1745 64.2966 31.5678V62.2878H70.4404C71.5715 62.2878 72.4884 61.3709 72.4884 60.2398V39.7598C72.4884 38.6287 71.5715 37.7118 70.4404 37.7118H69.4165C68.8509 37.7118 68.3925 37.2534 68.3925 36.6878V34.6398C68.3925 34.0742 68.8509 33.6158 69.4165 33.6158H70.4404C73.8335 33.6158 76.5843 36.3666 76.5843 39.7598V60.2398C76.5843 63.633 73.8335 66.3838 70.4404 66.3838ZM60.2008 31.5678C60.2008 30.4367 59.2839 29.5198 58.1528 29.5198H41.7693C40.6383 29.5198 39.7214 30.4367 39.7214 31.5678V68.4318C39.7214 69.5628 40.6383 70.4798 41.7693 70.4798H58.1528C59.2839 70.4798 60.2008 69.5628 60.2008 68.4318V31.5678Z" fill="white"></path>
</svg>
