<?xml version="1.0" encoding="UTF-8"?>
<svg xmlns="http://www.w3.org/2000/svg" width="100" height="100" viewBox="0 0 100 100" fill="none">
  <path d="M0 24C0 10.7452 10.7452 0 24 0H76C89.2548 0 100 10.7452 100 24V76C100 89.2548 89.2548 100 76 100H24C10.7452 100 0 89.2548 0 76V24Z" fill="#0079BF"></path>
  <path fill-rule="evenodd" clip-rule="evenodd" d="M46.9964 68.3331V70.6249C46.9964 74.4219 43.8811 77.4999 40.0864 77.4999H27.9101C24.0651 77.4999 21 74.4219 21 70.6249V36.25V31.6665V29.375C21 25.578 24.0651 22.5 27.9101 22.5H40.0864C43.8811 22.5 46.9964 25.578 46.9964 29.375V63.75V68.3331ZM40.0864 27.0833C41.3364 27.0833 42.3894 28.1093 42.3894 29.375V70.6249C42.3894 71.8905 41.3364 72.9166 40.0864 72.9166H27.9101C26.61 72.9166 25.607 71.8905 25.607 70.6249V29.375C25.607 28.1093 26.61 27.0833 27.9101 27.0833H40.0864Z" fill="white"></path>
  <path fill-rule="evenodd" clip-rule="evenodd" d="M53.5 58.5416V56.25C53.5 52.453 56.6152 49.375 60.4101 49.375H72.5864C76.4312 49.375 79.4964 52.453 79.4964 56.25V55V59.5834V70.625C79.4964 74.422 76.4312 77.5 72.5864 77.5H60.4101C56.6152 77.5 53.5 74.422 53.5 70.625V71.8749V58.5416ZM60.4101 72.9166C59.16 72.9166 58.107 71.8908 58.107 70.625V56.25C58.107 54.9844 59.16 53.9582 60.4101 53.9582H72.5864C73.8865 53.9582 74.8894 54.9844 74.8894 56.25V70.625C74.8894 71.8908 73.8865 72.9166 72.5864 72.9166H60.4101Z" fill="white"></path>
  <path fill-rule="evenodd" clip-rule="evenodd" d="M79.4964 35.2084V37.5C79.4964 41.297 76.3811 44.375 72.5864 44.375H60.4101C56.5651 44.375 53.5 41.297 53.5 37.5V38.75V34.1666V29.375C53.5 25.578 56.5651 22.5 60.4101 22.5H72.5864C76.3811 22.5 79.4964 25.578 79.4964 29.375V28.1251V35.2084ZM72.5864 27.0834C73.8364 27.0834 74.8894 28.1093 74.8894 29.375V37.5C74.8894 38.7656 73.8364 39.7918 72.5864 39.7918H60.4101C59.11 39.7918 58.107 38.7656 58.107 37.5V29.375C58.107 28.1093 59.11 27.0834 60.4101 27.0834H72.5864Z" fill="white"></path>
</svg>
