<?xml version="1.0" encoding="UTF-8"?>
<svg xmlns="http://www.w3.org/2000/svg" width="100" height="100" viewBox="0 0 100 100" fill="none">
  <path d="M0 24C0 10.7452 10.7452 0 24 0H76C89.2548 0 100 10.7452 100 24V76C100 89.2548 89.2548 100 76 100H24C10.7452 100 0 89.2548 0 76V24Z" fill="#D0004D"></path>
  <path d="M23 36C23 29.3726 28.3726 23 35 23H45.9999C52.0751 23 56.9999 27.9249 56.9999 34L56.9989 34V35.027C56.9989 35.2851 56.8936 35.5325 56.706 35.715C56.5185 35.8975 56.2642 36 55.9989 36H53.9989C53.7337 36 53.4794 35.8975 53.2918 35.715C53.1043 35.5325 52.999 35.2851 52.999 35.027V34C52.999 30.134 49.8659 27 45.9999 27H35C30.5817 27 27 31.5817 27 36V47C27 51.4183 30.5817 56 35 56H38.9626L38.973 55.9999L59.3563 55.9999L54.285 51C54.1947 50.9072 54.123 50.7969 54.0741 50.6756C54.0252 50.5543 54 50.4243 54 50.293C54 50.1616 54.0252 50.0316 54.0741 49.9103C54.123 49.789 54.1947 49.6787 54.285 49.5859L55.6608 48.1719C55.7512 48.0791 55.8584 48.0054 55.9765 47.9551C56.0945 47.9049 56.2211 47.879 56.3488 47.879C56.4766 47.879 56.6031 47.9049 56.7212 47.9551C56.8392 48.0054 56.9465 48.0791 57.0369 48.1719L65.43 56.586C65.795 56.961 66 57.4697 66 58.0002C66 58.5306 65.795 59.0393 65.43 59.4144L57.0368 67.8281C56.9465 67.921 56.8392 67.9946 56.7212 68.0449C56.6031 68.0951 56.4766 68.121 56.3488 68.121C56.2211 68.121 56.0945 68.0951 55.9765 68.0449C55.8584 67.9946 55.7512 67.921 55.6608 67.8281L54.285 66.4142C54.1947 66.3214 54.123 66.2111 54.0741 66.0898C54.0252 65.9685 54 65.8384 54 65.7071C54 65.5758 54.0252 65.4457 54.0741 65.3244C54.123 65.2031 54.1947 65.0929 54.285 65L59.3566 59.9999L35 60C28.3726 60 23 53.6274 23 47V36Z" fill="white"></path>
  <path d="M76.9999 64C76.9999 70.6274 71.6274 77 64.9999 77H54C47.9249 77 43 72.0751 43 66V64.973C43 64.7149 43.1054 64.4675 43.2929 64.285C43.4804 64.1025 43.7348 64 44 64H46C46.2652 64 46.5196 64.1025 46.7071 64.285C46.8946 64.4675 47 64.7149 47 64.973L47 66C47 69.866 50.134 73 54 73H64.9999C69.4182 73 72.9999 68.4183 72.9999 64V53C72.9999 48.5817 69.4182 44 64.9999 44H61.0374L61.027 44.0001H40.6437L45.715 49C45.8053 49.0928 45.877 49.2031 45.9259 49.3244C45.9748 49.4457 46 49.5757 46 49.707C46 49.8384 45.9748 49.9684 45.9259 50.0897C45.877 50.211 45.8053 50.3213 45.715 50.4141L44.3392 51.8281C44.2488 51.9209 44.1416 51.9946 44.0235 52.0449C43.9055 52.0951 43.7789 52.121 43.6512 52.121C43.5234 52.121 43.3969 52.0951 43.2788 52.0449C43.1608 51.9946 43.0535 51.9209 42.9632 51.8281L34.57 43.414C34.205 43.039 34 42.5303 34 41.9998C34 41.4694 34.205 40.9607 34.57 40.5856L42.9632 32.1719C43.0535 32.079 43.1608 32.0054 43.2788 31.9551C43.3969 31.9049 43.5234 31.879 43.6512 31.879C43.7789 31.879 43.9055 31.9049 44.0235 31.9551C44.1416 32.0054 44.2488 32.079 44.3392 32.1719L45.715 33.5858C45.8053 33.6787 45.877 33.7889 45.9259 33.9102C45.9748 34.0315 46 34.1616 46 34.2929C46 34.4242 45.9748 34.5543 45.9259 34.6756C45.877 34.7969 45.8053 34.9071 45.715 35L40.6434 40.0001L64.9999 40C71.6274 40 76.9999 46.3726 76.9999 53V64Z" fill="white"></path>
</svg>
