<svg id="Artwork" xmlns="http://www.w3.org/2000/svg" viewBox="0 0 384 384"><defs><style>.cls-1{fill:#d99b21;}.cls-2{fill:#001a4d;}</style></defs><path class="cls-1" d="M192,320A128,128,0,1,1,320,192,128,128,0,0,1,192,320Zm0-243.2A115.2,115.2,0,1,0,307.2,192,115.2,115.2,0,0,0,192,76.8Zm0,172.8c-18.87,0-32-19.695-32-48s13.13-48,32-48c37.74,0,64,19.6952,64,48S229.74,249.6,192,249.6Z"/><path class="cls-2" d="M208,105.6a15.9867,15.9867,0,0,1-8.3444,14.0439A2.0077,2.0077,0,0,0,198.4,121.746v11.37a1.3845,1.3845,0,0,0,1.491,1.591c41.01,3.0223,68.909,29.6144,68.909,66.8931,0,39.627-31.5121,67.2-76.8,67.2s-76.8-27.5731-76.8-67.2c0-37.2787,27.8988-63.8708,68.909-66.8931a1.3845,1.3845,0,0,0,1.491-1.591v-11.37a2.0077,2.0077,0,0,0-1.2556-2.1021A15.9867,15.9867,0,0,1,176,105.6h0a16,16,0,0,1,32,0Zm-76.8,96c0,26.4179,24.9471,44.8,60.8,44.8s60.8-18.3822,60.8-44.8-24.9471-44.8-60.8-44.8S131.2,175.1821,131.2,201.6Z"/></svg>