<?xml version="1.0" encoding="UTF-8"?>
<svg xmlns="http://www.w3.org/2000/svg" width="235" height="90" viewBox="0 0 235 90" fill="none">
  <g clip-path="url(#clip0_3_17077)">
    <path d="M19.4101 61.2712C19.7576 62.2215 20.1052 63.2266 20.3795 64.2135C18.459 69.1661 12.5327 69.5499 9.82563 66.8086C9.36836 65.9679 8.98425 65.0907 8.63672 64.1769C11.1609 64.6338 17.1054 63.2632 19.4101 61.2712ZM34.116 23.4049C34.4453 22.217 34.4453 20.956 34.1526 19.7498C33.7868 18.3609 33.0369 17.1182 31.9577 16.1496C31.9577 16.1496 29.6165 11.8184 25.3364 11.8184C22.7756 11.8549 20.3247 12.7687 18.3858 14.4317C16.7396 17.5568 16.1726 20.9743 17.014 24.2821C17.8188 27.4071 19.7576 30.0022 22.4464 31.9394C22.4464 31.9394 27.952 32.3232 31.0615 30.0205C34.0612 27.7909 34.116 23.4049 34.116 23.4049ZM40.1887 46.2672L31.0249 53.9428C30.4944 53.3214 26.3241 48.5699 24.4401 42.9776L34.8843 36.9103C37.0975 41.8629 38.8534 44.2386 40.1887 46.2672ZM30.8968 53.6869C30.9883 53.7966 30.9883 53.7966 30.8968 53.6869V53.6869ZM62.1195 60.1016C60.5648 61.9108 55.7543 64.8897 53.2118 64.8897C53.5228 65.7669 53.7606 66.6806 53.9069 67.5944C55.6628 70.5002 63.1072 67.6675 62.3573 62.8977C62.339 61.9656 62.2659 61.0336 62.1195 60.1016ZM36.3293 76.202C36.311 77.0427 36.2561 77.9199 36.2195 78.8337C37.3901 82.6167 44.8529 83.037 46.9563 78.7423C47.4502 78.0844 48.1818 76.8599 48.6757 74.941C45.0906 77.5361 38.7437 77.4448 36.3293 76.202ZM54.858 24.5197C55.0775 23.7521 55.2787 22.9663 55.4433 22.1804C52.279 21.687 49.0964 21.3763 45.9137 21.2849C45.6759 22.0525 45.365 22.7835 44.9809 23.478C46.4625 27.1513 52.4619 27.4802 54.858 24.5197ZM234.091 27.2609V50.6533C234.091 51.4574 233.433 52.1153 232.628 52.1153H178.487C177.682 52.1153 177.023 51.4574 177.023 50.6533V27.2609C177.023 26.4568 177.682 25.7989 178.487 25.7989H232.628C233.433 25.7989 234.091 26.4568 234.091 27.2609ZM204.387 46.852L194.546 38.3357L204.094 31.0987V30.185H199.942L188.858 38.5916V30.185H185.126V47.7292H188.858V40.2364H191.437L200.07 47.7292H204.405L204.387 46.852ZM210.35 34.6076H206.71V47.7292H210.35V34.6076ZM210.423 29.5819H206.637L206.801 32.7435H210.258L210.423 29.5819ZM226.903 47.583L226.482 44.9148C225.44 45.1159 224.397 45.2072 223.336 45.2072C220.391 45.2072 219.239 44.0376 219.239 41.9177V37.2392H226.811V34.5893H219.221V31.0987H217.318L215.563 34.6076H212.398V37.2575H215.617V41.9725C215.617 45.6824 217.575 48.0216 222.989 48.0216C224.287 48.0216 225.604 47.8754 226.903 47.583Z" fill="#D99B21"></path>
    <path d="M62.1838 59.9496C60.8849 52.0301 54.2075 46.6529 47.4019 46.6529C46.2677 46.6529 45.1334 46.7809 44.0174 47.0187C42.7002 45.5555 41.5111 43.946 40.5049 42.2633C46.5604 39.7576 52.5427 32.405 54.9209 24.3391C54.4453 24.7232 53.4208 25.2536 51.4267 25.2536C47.2373 25.2536 45.5359 23.8636 45.0236 23.2966C43.2491 26.4608 39.8829 29.0945 36.4253 29.0945C35.5654 29.0945 34.7056 29.0031 33.8457 28.8385C35.2544 26.2047 35.4922 23.9368 34.6324 22.9491C34.5043 22.8028 34.2665 22.7845 34.1202 22.9125C34.0653 22.9674 34.0287 23.0223 34.0104 23.0954C32.6932 28.3812 26.5463 31.6368 21.0213 31.6368C15.4598 31.6551 10.813 28.491 10.813 23.6441C10.813 18.2486 17.0514 13.3652 24.0216 13.3652C27.1683 13.3652 29.9856 14.3711 31.8699 16.127C32.0163 16.255 32.2358 16.255 32.3822 16.1087C32.4371 16.0538 32.4737 15.9806 32.4737 15.9075C32.931 12.7982 27.0036 8.64639 19.8322 8.64639C19.0089 8.64639 18.1674 8.70126 17.3442 8.811L16.9051 7.1649C16.777 6.70765 16.8502 6.46988 17.1612 6.12238C18.515 4.6226 18.4052 2.31807 16.9051 0.946326C15.4049 -0.407129 13.0998 -0.29739 11.7278 1.20238C10.374 2.70216 10.4837 5.00669 11.9839 6.37843C12.3681 6.72594 12.8437 7.00029 13.3377 7.14661C13.7767 7.29293 13.9414 7.47583 14.0694 7.91479L14.4719 9.41456C7.61151 11.5362 2.58054 17.517 2.58054 24.0831C2.58054 32.6611 9.9349 36.5568 14.3439 37.4896C12.7157 38.4041 11.307 39.6478 10.191 41.1476L9.44095 39.849C9.31289 39.6661 9.2946 39.41 9.40436 39.2089C9.75196 38.3675 9.34948 37.3982 8.48964 37.0689C7.6481 36.7214 6.67849 37.1238 6.34919 37.9834C6.0016 38.8248 6.40407 39.7941 7.26391 40.1234C7.39197 40.1782 7.52004 40.2148 7.66639 40.2331C7.90422 40.2514 8.10546 40.3794 8.19693 40.5806L9.31289 42.501C8.76406 43.4155 8.3067 44.3849 7.9591 45.3909L4.20874 38.9711C4.06239 38.7699 4.04409 38.4956 4.19045 38.2944C4.72099 37.197 4.26363 35.8984 3.16596 35.368C2.83666 35.2034 2.48906 35.1302 2.12318 35.1485C0.915743 35.1851 -0.0355678 36.2093 0.00102105 37.4164C0.0376099 38.5321 0.934038 39.4466 2.05 39.5198C2.28783 39.5198 2.52565 39.6661 2.61713 39.8856L7.22732 47.86C6.91632 49.3232 6.76996 50.823 6.76996 52.3227C6.76996 57.4622 7.6481 61.3031 8.67259 64.0283C9.02018 64.3575 9.84343 64.7599 11.7095 64.7599C15.8074 64.7599 19.2285 63.0224 19.4297 61.1019C23.0154 66.5706 26.8024 68.0887 33.0957 69.6982C35.0898 70.2103 36.3521 71.6918 36.3521 75.3681C36.3521 75.5875 36.3521 75.8253 36.3338 76.0631C36.8643 76.6666 38.2364 77.5629 41.6758 77.5629C46.0481 77.5629 47.969 75.7156 48.6642 74.8011C49.0118 73.3745 49.1765 71.9113 49.1765 70.4298C49.1765 65.9122 45.8652 61.6689 41.3465 59.2363C42.3526 59.0169 43.3954 58.9071 44.4199 58.9071C48.3349 58.9071 51.6462 60.4801 53.2013 64.7416C53.494 64.9245 54.0062 65.1257 54.8478 65.1257C57.6285 65.1257 61.2508 62.2725 62.1838 59.9496ZM39.0231 46.2505C34.3397 50.8413 29.0526 53.914 27.6439 54.6821C27.4244 54.7919 27.1683 54.7553 26.9853 54.5907C23.8936 51.4265 22.1007 47.1467 21.5702 45.7932C21.4787 45.5555 21.5885 45.2811 21.808 45.1714C26.1072 42.9766 30.26 40.5074 34.2116 37.764C34.3763 37.6542 34.5958 37.6908 34.7239 37.8554C34.7422 37.8737 34.7422 37.892 34.7605 37.9103C35.9862 40.5623 37.4314 43.1229 39.0779 45.5555C39.2426 45.7749 39.2243 46.0676 39.0231 46.2505ZM69.1723 66.5889C69.1723 70.631 64.7816 74.0878 60.0251 74.0878C56.8419 74.0878 54.6099 71.893 53.9879 67.6863C53.9696 67.6131 53.9696 67.5217 53.9513 67.4485C54.1892 67.668 54.5916 67.8692 55.2685 67.8692C58.2322 67.8692 62.4034 64.705 62.4034 62.748C62.4034 62.748 62.8058 62.5651 63.8669 62.5651C66.6111 62.5651 69.1723 63.9734 69.1723 66.5889ZM47.0177 78.6054C48.6825 80.8733 49.5973 83.251 49.5973 84.6959C49.5973 87.4394 47.8959 90 44.8407 90C40.3769 90 36.2423 85.519 36.2423 80.1234C36.2423 79.6479 36.2606 79.1724 36.2789 78.6968C36.6814 79.3553 37.8705 80.3063 41.3647 80.3063C44.3467 80.3063 46.0847 79.3736 47.0177 78.6054ZM20.4359 64.0649C20.9116 65.7476 21.2409 67.4119 21.2409 68.802C21.2409 71.1248 20.6189 72.5331 19.1919 73.0087C18.7711 75.5692 17.71 77.0324 15.5696 77.0324C12.551 77.0324 9.71537 73.8866 9.71537 68.2533C9.71537 67.7229 9.77025 67.1925 9.88002 66.662C10.4471 67.0278 11.3436 67.3388 12.8254 67.3388C17.5088 67.3205 19.7224 64.9977 20.4359 64.0649ZM42.8283 16.6574C42.8283 15.7246 43.615 15.1942 44.6577 15.1942C45.1517 15.1942 45.6456 15.2856 46.103 15.4685C45.9932 14.8284 45.9384 14.1882 45.9384 13.5481C45.9384 10.2742 47.0909 7.69531 49.9631 7.69531C53.2013 7.69531 56.0003 11.7008 56.0003 17.2061C56.0003 18.8156 55.8357 20.4251 55.5064 21.998C55.0307 22.2724 53.933 22.6931 51.7926 22.6931C47.1641 22.6931 45.9567 21.1018 45.9567 21.1018C44.5846 19.9496 42.8283 18.1937 42.8283 16.6574ZM73.5813 37.9834H83.0212V46.9089C80.3136 47.5491 77.5329 47.8783 74.7521 47.8783C67.0319 47.8783 62.9339 44.2935 62.9339 38.7699C62.9339 33.1549 67.3612 29.7164 75.1546 29.7164C77.6609 29.7164 80.149 29.9724 82.6004 30.4846L81.9784 33.3012C79.7648 32.8805 77.5329 32.6794 75.2826 32.6794C69.3552 32.6794 66.7026 35.0753 66.7026 38.8431C66.7026 42.6291 69.2455 44.9336 74.8619 44.9336C76.4352 44.9519 78.0268 44.8422 79.5818 44.6044V40.7452L73.563 39.7576L73.5813 37.9834ZM155.723 44.7507L156.144 47.421C154.845 47.7137 153.528 47.86 152.211 47.86C146.796 47.86 144.838 45.5189 144.838 41.806V37.0872H141.618V34.4352H144.783L146.558 30.9235H148.46V34.4352H156.053V37.0872H148.479V41.7695C148.479 43.8911 149.65 45.0616 152.577 45.0616C153.638 45.0434 154.699 44.9519 155.723 44.7507ZM135.892 29.4055H139.679L139.533 32.5696H136.075L135.892 29.4055ZM174.091 34.4352V35.3314L165.035 51.9569H160.443V51.079L165.712 46.9455V46.7992H163.608L157.333 35.3314V34.4352H160.864L165.804 44.3483L170.633 34.4352H174.091ZM95.3334 34.4352H97.1628V37.892L90.1926 39.6295V47.5674H86.552V34.4352H89.0035L89.9731 37.3799L95.3334 34.4352ZM135.965 34.4352H139.606V47.5674H135.965V34.4352ZM130.111 34.4352H133.624V35.3314L126.617 47.5674H123.58L116.537 35.3314V34.4352H120.104L125.117 43.6167L130.111 34.4352ZM105.962 34.1608C103.95 34.1791 101.919 34.3986 99.9436 34.8193L100.364 37.3433C102.084 36.9775 103.84 36.7946 105.615 36.7763C109.127 36.7763 110.371 37.892 110.536 39.7758L104.151 39.9405C100.62 40.0319 98.9374 41.5317 98.9374 43.8545C98.9374 46.159 100.822 47.86 104.426 47.86C106.841 47.86 109.018 47.0187 110.756 45.9761L111.615 47.5674H114.195V40.5623C114.195 36.6666 112.329 34.1608 105.962 34.1608ZM110.573 44.2752C109.036 44.9885 107.353 45.4823 105.578 45.4823C103.346 45.4823 102.413 44.7141 102.395 43.5984C102.395 42.5193 103.182 41.9158 104.645 41.8609L110.573 41.6597V44.2752Z" fill="white"></path>
  </g>
  <defs>
    <clipPath id="clip0_3_17077">
      <rect width="234.091" height="90" fill="white"></rect>
    </clipPath>
  </defs>
</svg>
