<?xml version="1.0" encoding="UTF-8"?>
<svg xmlns="http://www.w3.org/2000/svg" width="100" height="100" viewBox="0 0 100 100" fill="none">
  <path d="M0 24C0 10.7452 10.7452 0 24 0H76C89.2548 0 100 10.7452 100 24V76C100 89.2548 89.2548 100 76 100H24C10.7452 100 0 89.2548 0 76V24Z" fill="#2EE951"></path>
  <path fill-rule="evenodd" clip-rule="evenodd" d="M77.4413 28.0185L54.4717 50.988C53.5876 51.872 52.1541 51.8719 51.2701 50.9879L43.0159 42.7329C42.5739 42.2909 42.5739 41.5744 43.0158 41.1324L44.6162 39.5317C45.0581 39.0898 45.7747 39.0896 46.2167 39.5316L52.871 46.1859L67.4383 31.6193C67.117 30.7601 66.2953 30.1451 65.324 30.1451H42.6858C41.4356 30.1451 40.4221 31.1586 40.4221 32.4088V55.0464C40.4221 56.2967 41.4356 57.3102 42.6858 57.3102H65.324C66.5742 57.3102 67.5878 56.2967 67.5878 55.0464V45.213C67.5878 44.6127 67.8262 44.0369 68.2507 43.6123L71.1492 40.7139C71.5057 40.3574 72.1154 40.6098 72.1154 41.1142V55.0464C72.1154 58.7972 69.0748 61.8377 65.324 61.8377H42.6858C38.935 61.8377 35.8944 58.7972 35.8944 55.0464V43.7276H29.103C27.8526 43.7276 26.8392 44.7411 26.8392 45.9914V68.629C26.8392 69.8792 27.8526 70.8927 29.103 70.8927H51.7411C52.9913 70.8927 54.0049 69.8792 54.0049 68.629V67.497C54.0049 66.872 54.5117 66.3652 55.1368 66.3652H57.4007C58.0256 66.3652 58.5325 66.872 58.5325 67.497V68.629C58.5325 72.3797 55.4919 75.4202 51.7411 75.4202H29.103C25.3522 75.4202 22.3115 72.3797 22.3115 68.629V45.9914C22.3115 42.2407 25.3522 39.2001 29.103 39.2001H35.8944V32.4088C35.8944 28.6582 38.935 25.6177 42.6858 25.6177H65.324C67.5399 25.6177 69.4916 26.6875 70.7255 28.3322L74.2404 24.8173C74.6823 24.3753 75.399 24.3753 75.841 24.8173L77.4413 26.4179C77.8833 26.8599 77.8833 27.5765 77.4413 28.0185Z" fill="white"></path>
</svg>
