<?xml version="1.0" encoding="UTF-8"?>
<svg xmlns="http://www.w3.org/2000/svg" width="100" height="100" viewBox="0 0 100 100" fill="none">
  <path d="M0 24C0 10.7452 10.7452 0 24 0H76C89.2548 0 100 10.7452 100 24V76C100 89.2548 89.2548 100 76 100H24C10.7452 100 0 89.2548 0 76V24Z" fill="#BD35FF"></path>
  <path fill-rule="evenodd" clip-rule="evenodd" d="M51.5142 74.8207C43.419 74.8207 36.2333 70.9419 31.703 64.9445C31.3671 64.4997 31.425 63.8683 31.8191 63.4741L33.4392 61.8538C33.9229 61.3703 34.7284 61.4198 35.1322 61.9719C38.8248 67.0205 44.78 70.3079 51.5142 70.3079C62.7293 70.3079 71.8211 61.2158 71.8211 50.0002C71.8211 41.5025 66.5926 34.244 59.184 31.2177C58.6457 30.9977 58.2819 30.4939 58.2819 29.9123V27.5485C58.2819 26.6988 58.8411 26.2801 59.3825 26.461C69.2318 29.7517 76.3338 39.0435 76.3338 50.0002C76.3338 63.7083 65.2215 74.8207 51.5142 74.8207ZM62.4535 59.3542L60.8614 60.9496C60.4219 61.3901 59.7083 61.3903 59.2686 60.9499L49.9255 51.5921C49.5031 51.1691 49.266 50.5959 49.266 49.9981V29.8192C39.1091 30.9384 31.2071 39.5449 31.2071 50.0002C31.2071 50.4252 31.2437 50.8408 31.2707 51.2589L36.7115 45.8179C37.1521 45.3774 37.8665 45.3774 38.3071 45.8179L39.9021 47.4133C40.3426 47.8539 40.3426 48.5681 39.9021 49.0087L30.5466 58.3652C29.6653 59.2463 28.2366 59.2464 27.3555 58.3652L17.9994 49.0087C17.5588 48.5681 17.5588 47.8539 17.9994 47.4132L19.5946 45.8179C20.035 45.3775 20.7493 45.3775 21.1898 45.8179L26.7605 51.3884C26.7334 50.9269 26.6944 50.4685 26.6944 50.0002C26.6944 36.2921 37.8064 25.1797 51.5142 25.1797C51.9188 25.1797 52.3207 25.191 52.7202 25.2115C53.3119 25.2421 53.7692 25.7459 53.7692 26.3384L53.7703 49.0611L62.4533 57.7584C62.8935 58.1993 62.8936 58.9133 62.4535 59.3542Z" fill="white"></path>
</svg>
