<?xml version="1.0" encoding="UTF-8"?>
<svg xmlns="http://www.w3.org/2000/svg" width="100" height="100" viewBox="0 0 100 100" fill="none">
  <path d="M0 24C0 10.7452 10.7452 0 24 0H76C89.2548 0 100 10.7452 100 24V76C100 89.2548 89.2548 100 76 100H24C10.7452 100 0 89.2548 0 76V24Z" fill="#00EA97"></path>
  <path fill-rule="evenodd" clip-rule="evenodd" d="M49.4883 62.062C49.0858 62.4644 48.4335 62.4644 48.0312 62.0621L46.5744 60.6052C46.172 60.2029 46.172 59.5506 46.5744 59.1483L53.7062 52.0607H23.6575C23.0375 52.0607 22.6357 51.5995 22.6357 51.0304V48.9699C22.6357 48.4008 23.0375 47.9396 23.6575 47.9396H28.8619C29.9044 36.3881 39.6014 27.3335 51.4239 27.3335C63.942 27.3335 74.0898 37.4816 74.0898 50.0002C74.0898 62.5186 63.942 72.6667 51.4239 72.6667C41.4193 72.6667 32.94 66.1812 29.9364 57.1869C29.7713 56.6925 30.1564 56.182 30.6778 56.182H33.0816C33.6128 56.182 34.0754 56.5141 34.2763 57.0058C37.0395 63.7709 43.6646 68.5455 51.4239 68.5455C61.6658 68.5455 69.9687 60.2425 69.9687 50.0002C69.9687 39.7577 61.6658 31.4547 51.4239 31.4547C41.8791 31.4547 34.0258 38.6789 32.9998 47.9396H53.7088L46.5744 40.8519C46.172 40.4496 46.172 39.7972 46.5744 39.3949L48.0312 37.9381C48.4336 37.5358 49.0858 37.5358 49.4883 37.9381L60.0928 48.5637C60.8976 49.3476 60.8976 50.6522 60.0929 51.457L49.4883 62.062Z" fill="white"></path>
</svg>
