<?xml version="1.0" encoding="UTF-8"?>
<svg xmlns="http://www.w3.org/2000/svg" width="100" height="100" viewBox="0 0 100 100" fill="none">
  <path d="M0 24C0 10.7452 10.7452 0 24 0H76C89.2548 0 100 10.7452 100 24V76C100 89.2548 89.2548 100 76 100H24C10.7452 100 0 89.2548 0 76V24Z" fill="#FFC124"></path>
  <path fill-rule="evenodd" clip-rule="evenodd" d="M75.7092 47.1375H47.1457C47.096 47.1375 47.0532 47.1164 47.0056 47.1091L41.7805 52.3373C41.4086 52.7094 40.8058 52.7094 40.4339 52.3373L39.0865 50.989C38.7147 50.6169 38.7147 50.0138 39.0865 49.6418L44.8401 43.8849C45.1973 43.5276 45.6816 43.3269 46.1866 43.3269H75.7092C76.235 43.3269 76.6612 43.7534 76.6612 44.2795V46.1848C76.6612 46.7109 76.235 47.1375 75.7092 47.1375ZM60.4753 31.895H62.3795C62.9054 31.895 63.3317 32.3214 63.3317 32.8476V38.5635C63.3317 39.0896 62.9054 39.5162 62.3795 39.5162H60.4753C59.9495 39.5162 59.5232 39.0896 59.5232 38.5635V32.8476C59.5232 32.3214 59.9495 31.895 60.4753 31.895ZM26.3111 43.5953L47.8237 65.1202C48.1957 65.4923 48.1957 66.0957 47.8237 66.468L46.4769 67.8156C46.1049 68.1877 45.5017 68.1877 45.1297 67.8156L35.7202 58.4009L26.3109 67.8156C25.9389 68.1877 25.3357 68.1877 24.9638 67.8156L23.6169 66.468C23.2449 66.0957 23.2449 65.4923 23.6169 65.1202L33.0263 55.7053L23.6171 46.2908C23.2451 45.9185 23.2451 45.3152 23.6171 44.9428L24.9639 43.5953C25.3359 43.2231 25.939 43.2231 26.3111 43.5953ZM60.4753 50.9481H62.3795C62.9054 50.9481 63.3317 51.3746 63.3317 51.9007V57.6166C63.3317 58.1427 62.9054 58.5693 62.3795 58.5693H60.4753C59.9495 58.5693 59.5232 58.1427 59.5232 57.6166V51.9007C59.5232 51.3746 59.9495 50.9481 60.4753 50.9481Z" fill="white"></path>
</svg>
