<?xml version="1.0" encoding="UTF-8"?>
<svg xmlns="http://www.w3.org/2000/svg" width="60" height="60" viewBox="0 0 60 60" fill="none">
  <g clip-path="url(#clip0_2188_1153)">
    <rect width="60" height="60" fill="#D0004D"></rect>
    <path d="M13.8 21.5998C13.8 17.6234 17.0236 13.7998 21 13.7998H27.6C31.2451 13.7998 34.2 16.7547 34.2 20.3998L34.1994 20.3998V21.016C34.1994 21.1708 34.1362 21.3193 34.0237 21.4288C33.9112 21.5383 33.7585 21.5998 33.5994 21.5998H32.3994C32.2403 21.5998 32.0877 21.5383 31.9752 21.4288C31.8626 21.3193 31.7994 21.1708 31.7994 21.016V20.3998C31.7994 18.0802 29.9196 16.1998 27.6 16.1998H21C18.3491 16.1998 16.2 18.9488 16.2 21.5998V28.1998C16.2 30.8508 18.3491 33.5998 21 33.5998H23.3776L23.3838 33.5998L35.6138 33.5998L32.5711 30.5998C32.5169 30.5441 32.4738 30.478 32.4445 30.4052C32.4152 30.3324 32.4001 30.2544 32.4001 30.1756C32.4001 30.0968 32.4152 30.0188 32.4445 29.946C32.4738 29.8732 32.5169 29.807 32.5711 29.7513L33.3965 28.903C33.4508 28.8472 33.5151 28.803 33.5859 28.7729C33.6568 28.7427 33.7327 28.7272 33.8094 28.7272C33.886 28.7272 33.9619 28.7427 34.0328 28.7729C34.1036 28.803 34.168 28.8472 34.2222 28.903L39.2581 33.9514C39.477 34.1764 39.6 34.4816 39.6 34.7999C39.6 35.1182 39.477 35.4234 39.2581 35.6484L34.2222 40.6967C34.1679 40.7524 34.1036 40.7966 34.0328 40.8267C33.9619 40.8569 33.886 40.8724 33.8093 40.8724C33.7327 40.8724 33.6568 40.8569 33.5859 40.8267C33.5151 40.7966 33.4507 40.7524 33.3965 40.6967L32.5711 39.8483C32.5169 39.7926 32.4738 39.7265 32.4445 39.6537C32.4152 39.5809 32.4 39.5029 32.4 39.4241C32.4 39.3453 32.4152 39.2672 32.4445 39.1944C32.4738 39.1217 32.5169 39.0555 32.5711 38.9998L35.614 35.9998L21 35.9998C17.0236 35.9998 13.8 32.1763 13.8 28.1998V21.5998Z" fill="white"></path>
    <path d="M46.2 38.3998C46.2 42.3763 42.9765 46.1998 39 46.1998H32.4C28.755 46.1998 25.8 43.2449 25.8 39.5998V38.9836C25.8 38.8288 25.8633 38.6803 25.9758 38.5708C26.0883 38.4613 26.2409 38.3998 26.4 38.3998H27.6C27.7592 38.3998 27.9118 38.4613 28.0243 38.5708C28.1368 38.6803 28.2 38.8288 28.2 38.9836L28.2 39.5998C28.2 41.9194 30.0805 43.7998 32.4 43.7998H39C41.651 43.7998 43.8 41.0508 43.8 38.3998V31.7998C43.8 29.1488 41.651 26.3998 39 26.3998H36.6225L36.6162 26.3998H24.3863L27.429 29.3998C27.4832 29.4555 27.5263 29.5216 27.5556 29.5944C27.5849 29.6672 27.6 29.7452 27.6 29.824C27.6 29.9028 27.5849 29.9808 27.5556 30.0536C27.5263 30.1264 27.4832 30.1926 27.429 30.2483L26.6036 31.0967C26.5494 31.1524 26.485 31.1966 26.4142 31.2267C26.3433 31.2569 26.2674 31.2724 26.1908 31.2724C26.1141 31.2724 26.0382 31.2569 25.9673 31.2267C25.8965 31.1966 25.8322 31.1524 25.7779 31.0967L20.742 26.0482C20.5231 25.8232 20.4 25.518 20.4 25.1997C20.4 24.8815 20.5231 24.5762 20.742 24.3512L25.7779 19.3029C25.8322 19.2472 25.8965 19.203 25.9673 19.1729C26.0382 19.1427 26.1141 19.1272 26.1908 19.1272C26.2674 19.1272 26.3433 19.1427 26.4142 19.1729C26.485 19.203 26.5494 19.2472 26.6036 19.3029L27.429 20.1513C27.4832 20.207 27.5263 20.2731 27.5556 20.3459C27.5849 20.4187 27.6 20.4967 27.6 20.5755C27.6 20.6543 27.5849 20.7324 27.5556 20.8052C27.5263 20.878 27.4832 20.9441 27.429 20.9998L24.3861 23.9998L39 23.9998C42.9765 23.9998 46.2 27.8234 46.2 31.7998V38.3998Z" fill="white"></path>
  </g>
  <defs>
    <clipPath id="clip0_2188_1153">
      <rect width="60" height="60" rx="16" fill="white"></rect>
    </clipPath>
  </defs>
</svg>
